<svg width="20" height="20" viewBox="0 0 20 20" fill="none" xmlns="http://www.w3.org/2000/svg">
<g opacity="0.5" clip-path="url(#clip0_170_824)">
<path fill-rule="evenodd" clip-rule="evenodd" d="M6.91098 10.5893C6.75476 10.433 6.66699 10.2211 6.66699 10.0001C6.66699 9.77915 6.75476 9.56723 6.91098 9.41096L11.6251 4.69679C11.702 4.6172 11.794 4.55371 11.8956 4.51004C11.9973 4.46636 12.1067 4.44338 12.2173 4.44241C12.328 4.44145 12.4377 4.46254 12.5401 4.50444C12.6425 4.54634 12.7356 4.60822 12.8138 4.68646C12.8921 4.7647 12.9539 4.85775 12.9958 4.96016C13.0377 5.06257 13.0588 5.17231 13.0579 5.28296C13.0569 5.39361 13.0339 5.50296 12.9902 5.60463C12.9466 5.7063 12.8831 5.79825 12.8035 5.87512L8.67848 10.0001L12.8035 14.1251C12.9553 14.2823 13.0393 14.4928 13.0374 14.7113C13.0355 14.9298 12.9478 15.1388 12.7933 15.2933C12.6388 15.4478 12.4298 15.5355 12.2113 15.5374C11.9928 15.5393 11.7823 15.4553 11.6251 15.3035L6.91098 10.5893Z" fill="#273340"/>
</g>
<defs>
<clipPath id="clip0_170_824">
<rect width="20" height="20" fill="white"/>
</clipPath>
</defs>
</svg>
